<?xml version="1.0" encoding="UTF-8"?>
<svg version="1.1" xmlns="http://www.w3.org/2000/svg" width="313" height="313">
<path d="M0 0 C103.29 0 206.58 0 313 0 C313 103.29 313 206.58 313 313 C209.71 313 106.42 313 0 313 C0 209.71 0 106.42 0 0 Z " fill="#2C3E50" transform="translate(0,0)"/>
<path d="M0 0 C2.66711237 1.87071178 4.61581312 3.81379678 6.76171875 6.26171875 C7.54289062 7.15246094 8.3240625 8.04320313 9.12890625 8.9609375 C12.18047794 12.54778488 15.16574025 16.18367214 18.12890625 19.84375 C20.71927723 23.01589282 23.35854742 26.14215169 26.01171875 29.26171875 C30.13296057 34.11111781 34.18163689 39.01333246 38.19921875 43.94921875 C40.77318267 47.07971541 43.38740961 50.17344336 46.01171875 53.26171875 C50.12074746 58.09720558 54.15836429 62.98454821 58.1640625 67.90625 C62.55175509 73.24302752 67.03556887 78.49910516 71.51171875 83.76171875 C75.0770375 81.07220129 77.86924387 78.32302255 80.63671875 74.82421875 C81.41273438 73.85613281 82.18875 72.88804687 82.98828125 71.890625 C83.39723633 71.38031738 83.80619141 70.87000977 84.22753906 70.34423828 C86.44436699 67.61239824 88.73025749 64.93959285 91.01171875 62.26171875 C94.38505571 58.29312133 97.72349786 54.30153299 101.01171875 50.26171875 C104.75959673 45.65718295 108.58155319 41.12152684 112.42578125 36.59765625 C115.32416698 33.18112335 118.18326975 29.73667037 121.01171875 26.26171875 C126.09402556 20.0226862 131.28860285 13.88292698 136.51171875 7.76171875 C137.59259766 6.49134766 137.59259766 6.49134766 138.6953125 5.1953125 C139.31535156 4.47472656 139.93539062 3.75414063 140.57421875 3.01171875 C141.36505859 2.09132813 141.36505859 2.09132813 142.171875 1.15234375 C144.51669644 -1.28134847 146.50103129 -1.4454189 149.76171875 -1.55078125 C154.39046818 -1.49860533 156.97532524 -0.34340726 160.51171875 2.76171875 C162.83210814 6.2553293 162.76766323 9.33774404 162.77914429 13.46640015 C162.7836754 14.13937059 162.78820651 14.81234103 162.79287493 15.50570452 C162.80553005 17.75956953 162.80389788 20.01319325 162.80224609 22.26708984 C162.80823065 23.883543 162.81503603 25.49999329 162.82260132 27.11643982 C162.84027578 31.50697693 162.8449573 35.8974361 162.84623289 40.28800535 C162.84813207 43.95350805 162.8554898 47.61899261 162.86257708 51.28448832 C162.87886407 59.9328323 162.88374574 68.58113464 162.88232422 77.22949219 C162.88112263 86.15001399 162.90222717 95.0702939 162.93381155 103.99075449 C162.95996486 111.65032508 162.97069191 119.30981662 162.9694134 126.96943152 C162.96890349 131.54379822 162.9746024 136.11794997 162.9957695 140.69227219 C163.01513608 144.99498596 163.01528733 149.29727939 163.00073624 153.60000801 C162.99864507 155.17780356 163.0033674 156.75562531 163.01545715 158.33337593 C163.03091341 160.49043384 163.02160117 162.64604297 163.00619507 164.80307007 C163.0072846 166.00911077 163.00837414 167.21515148 163.00949669 168.45773888 C162.40868159 172.44562354 160.99267297 174.62077984 158.51171875 177.76171875 C154.52537811 180.47967828 150.17193275 180.55322823 145.51171875 179.76171875 C141.1525027 177.53142217 138.9940857 174.3463404 137.51171875 169.76171875 C137.25000572 167.24116039 137.25000572 167.24116039 137.23324585 164.52885437 C137.22208237 163.49545425 137.21091888 162.46205414 137.19941711 161.39733887 C137.19725693 160.27452515 137.19509674 159.15171143 137.19287109 157.99487305 C137.17780266 156.20887444 137.17780266 156.20887444 137.16242981 154.38679504 C137.13687203 151.13098836 137.11999606 147.87527645 137.10700178 144.61939979 C137.09134827 141.21340484 137.06456515 137.80749769 137.03897095 134.40156555 C136.99222239 127.9560591 136.95545936 121.51053606 136.92229807 115.06494695 C136.88404891 107.72513401 136.83464609 100.38540934 136.78431392 93.04567087 C136.68105246 77.95108544 136.5917733 62.85644643 136.51171875 47.76171875 C134.60601804 49.97852345 132.70120208 52.19607827 130.796875 54.4140625 C130.26276001 55.03518921 129.72864502 55.65631592 129.17834473 56.29626465 C125.31085781 60.80266336 121.53257973 65.37436554 117.7890625 69.984375 C115.22967821 73.10568242 112.62578084 76.18621905 110.01171875 79.26171875 C106.63888286 83.23075418 103.2999523 87.22188896 100.01171875 91.26171875 C95.77076809 96.47137577 91.43950267 101.59998348 87.08984375 106.71875 C85.76700487 108.28010074 84.44573873 109.84320318 83.15795898 111.43359375 C79.54854704 115.88086919 77.25235013 117.41185091 71.57421875 118.13671875 C64.83900609 117.31199883 60.77570878 112.14938682 56.69921875 107.19921875 C55.91720093 106.26831421 55.91720093 106.26831421 55.11938477 105.31860352 C51.30092872 100.7599959 47.53759484 96.15524789 43.7890625 91.5390625 C41.22967821 88.41775508 38.62578084 85.33721845 36.01171875 82.26171875 C31.89840995 77.42132067 27.8563603 72.5292294 23.84765625 67.6015625 C20.68452763 63.75608673 17.46264736 59.9616442 14.22851562 56.17578125 C11.89314127 53.43351151 9.65667891 50.65435295 7.51171875 47.76171875 C7.5093304 48.38494333 7.50694204 49.00816792 7.50448132 49.65027809 C7.44531085 64.82407764 7.3697478 79.99769975 7.27600384 95.17131996 C7.23106378 102.50921822 7.19164505 109.84706814 7.1652832 117.18505859 C7.14228855 123.58185306 7.10887427 129.97849432 7.06301719 136.37516725 C7.03910454 139.7612798 7.02036303 143.1472408 7.01410484 146.53343582 C7.00449286 150.31630297 6.97646658 154.0986164 6.9440918 157.88134766 C6.94552689 159.0005661 6.94696198 160.11978455 6.94844055 161.2729187 C6.869546 167.78409559 6.30132424 172.39094545 2.01171875 177.57421875 C-1.10096644 180.03842786 -4.57249808 180.09649864 -8.421875 180.046875 C-11.84168381 179.57495431 -13.91487595 177.96749473 -16.48828125 175.76171875 C-18.81341317 172.27288641 -18.74423324 169.18299012 -18.75570679 165.05703735 C-18.7602379 164.38406691 -18.76476901 163.71109647 -18.76943743 163.01773298 C-18.78209255 160.76386797 -18.78046038 158.51024425 -18.77880859 156.25634766 C-18.78479315 154.6398945 -18.79159853 153.02344421 -18.79916382 151.40699768 C-18.81683828 147.01646057 -18.8215198 142.6260014 -18.82279539 138.23543215 C-18.82469457 134.56992945 -18.8320523 130.90444489 -18.83913958 127.23894918 C-18.85542657 118.5906052 -18.86030824 109.94230286 -18.85888672 101.29394531 C-18.85768513 92.37342351 -18.87878967 83.4531436 -18.91037405 74.53268301 C-18.93652736 66.87311242 -18.94725441 59.21362088 -18.9459759 51.55400598 C-18.94546599 46.97963928 -18.9511649 42.40548753 -18.972332 37.83116531 C-18.99169858 33.52845154 -18.99184983 29.22615811 -18.97729874 24.92342949 C-18.97520757 23.34563394 -18.9799299 21.76781219 -18.99201965 20.19006157 C-19.00747591 18.03300366 -18.99816367 15.87739453 -18.98275757 13.72036743 C-18.9838471 12.51432673 -18.98493664 11.30828602 -18.98605919 10.06569862 C-18.30452863 5.54206855 -16.35468596 2.2281796 -12.73828125 -0.61328125 C-8.18344029 -1.87851485 -4.21455075 -2.097351 0 0 Z " fill="#EAEEEF" transform="translate(84.48828125,67.23828125)"/>
<path d="M0 0 C0.33 0 0.66 0 1 0 C1 7.59 1 15.18 1 23 C-6.59 23 -14.18 23 -22 23 C-19 21 -19 21 -16.73046875 19.7734375 C-7.99844167 14.97149327 -3.4702961 9.25412293 0 0 Z " fill="#000000" transform="translate(312,290)"/>
<path d="M0 0 C2 3 2 3 3.2265625 5.26953125 C8.02850673 14.00155833 13.74587707 18.5297039 23 22 C23 22.33 23 22.66 23 23 C15.41 23 7.82 23 0 23 C0 15.41 0 7.82 0 0 Z " fill="#000000" transform="translate(0,290)"/>
<path d="M0 0 C7.59 0 15.18 0 23 0 C23 7.59 23 15.18 23 23 C21 20 21 20 19.7734375 17.73046875 C14.97149327 8.99844167 9.25412293 4.4702961 0 1 C0 0.67 0 0.34 0 0 Z " fill="#000000" transform="translate(290,0)"/>
<path d="M0 0 C7.59 0 15.18 0 23 0 C20 2 20 2 17.73046875 3.2265625 C8.99844167 8.02850673 4.4702961 13.74587707 1 23 C0.67 23 0.34 23 0 23 C0 15.41 0 7.82 0 0 Z " fill="#000001" transform="translate(0,0)"/>
</svg>
